<mxfile host="app.diagrams.net" modified="2020-11-26T14:50:55.213Z" agent="5.0 (Macintosh; Intel Mac OS X 10_15_3) AppleWebKit/537.36 (KHTML, like Gecko) Chrome/87.0.4280.67 Safari/537.36" etag="d1fTYT_Z5tp67JQkh1Co" version="13.10.2" type="github">
  <diagram id="SZ1D2dMNAJkDN81yvN-u" name="Page-1">
    <mxGraphModel dx="1779" dy="1548" grid="1" gridSize="10" guides="1" tooltips="1" connect="1" arrows="1" fold="1" page="1" pageScale="1" pageWidth="850" pageHeight="1100" math="0" shadow="0">
      <root>
        <mxCell id="0" />
        <mxCell id="1" parent="0" />
        <UserObject label="" tooltip="Wardley Mapping Canvas" id="ZytXiSbGGcMKnFnPFabf-16">
          <mxCell style="endArrow=none;dashed=1;html=1;strokeWidth=1;fontSize=26;strokeColor=#000000;" edge="1" parent="1">
            <mxGeometry width="50" height="50" relative="1" as="geometry">
              <mxPoint x="65" y="650.0000000000002" as="sourcePoint" />
              <mxPoint x="65" y="-150" as="targetPoint" />
            </mxGeometry>
          </mxCell>
        </UserObject>
        <mxCell id="ZytXiSbGGcMKnFnPFabf-17" value="" style="endArrow=none;dashed=1;html=1;strokeWidth=1;fontSize=26;strokeColor=#000000;" edge="1" parent="1">
          <mxGeometry width="50" height="50" relative="1" as="geometry">
            <mxPoint x="320" y="540" as="sourcePoint" />
            <mxPoint x="308.9999999999998" y="-140" as="targetPoint" />
          </mxGeometry>
        </mxCell>
        <mxCell id="ZytXiSbGGcMKnFnPFabf-18" value="" style="endArrow=none;dashed=1;html=1;strokeWidth=1;fontSize=26;strokeColor=#000000;" edge="1" parent="1">
          <mxGeometry width="50" height="50" relative="1" as="geometry">
            <mxPoint x="595.9999999999998" y="650.0000000000002" as="sourcePoint" />
            <mxPoint x="595.9999999999998" y="-130" as="targetPoint" />
          </mxGeometry>
        </mxCell>
        <mxCell id="ZytXiSbGGcMKnFnPFabf-19" value="" style="endArrow=classic;html=1;strokeWidth=3;fontSize=26;" edge="1" parent="1">
          <mxGeometry width="50" height="50" relative="1" as="geometry">
            <mxPoint x="-144" y="593.0000000000002" as="sourcePoint" />
            <mxPoint x="-144" y="-160" as="targetPoint" />
          </mxGeometry>
        </mxCell>
        <mxCell id="ZytXiSbGGcMKnFnPFabf-20" value="" style="endArrow=classic;html=1;strokeWidth=3;fontSize=26;" edge="1" parent="1">
          <mxGeometry width="50" height="50" relative="1" as="geometry">
            <mxPoint x="-145.00000000000023" y="593.0000000000002" as="sourcePoint" />
            <mxPoint x="924.9999999999998" y="593.0000000000002" as="targetPoint" />
          </mxGeometry>
        </mxCell>
        <mxCell id="ZytXiSbGGcMKnFnPFabf-21" value="&lt;i&gt;Genesis&lt;/i&gt;&lt;br style=&quot;font-size: 14px&quot;&gt;" style="text;html=1;strokeColor=none;fillColor=none;align=left;verticalAlign=top;whiteSpace=wrap;rounded=0;labelPosition=center;verticalLabelPosition=middle;fontFamily=Courier New;fontStyle=1;fontSize=14;" vertex="1" parent="1">
          <mxGeometry x="-132.00000000000023" y="592" width="136" height="28" as="geometry" />
        </mxCell>
        <mxCell id="ZytXiSbGGcMKnFnPFabf-22" value="&lt;i&gt;Emerging&lt;/i&gt;" style="text;html=1;strokeColor=none;fillColor=none;align=left;verticalAlign=top;whiteSpace=wrap;rounded=0;labelPosition=center;verticalLabelPosition=middle;fontFamily=Courier New;fontStyle=1;fontSize=14;" vertex="1" parent="1">
          <mxGeometry x="96.99999999999977" y="592" width="133" height="28" as="geometry" />
        </mxCell>
        <mxCell id="ZytXiSbGGcMKnFnPFabf-23" value="&lt;i&gt;Converging&lt;/i&gt;" style="text;html=1;strokeColor=none;fillColor=none;align=left;verticalAlign=top;whiteSpace=wrap;rounded=0;labelPosition=center;verticalLabelPosition=middle;fontFamily=Courier New;fontStyle=1;fontSize=14;" vertex="1" parent="1">
          <mxGeometry x="334.9999999999998" y="592" width="165" height="28" as="geometry" />
        </mxCell>
        <mxCell id="ZytXiSbGGcMKnFnPFabf-24" value="&lt;i&gt;Establishing&lt;/i&gt;" style="text;html=1;strokeColor=none;fillColor=none;align=left;verticalAlign=top;whiteSpace=wrap;rounded=0;labelPosition=center;verticalLabelPosition=middle;fontFamily=Courier New;fontStyle=1;fontSize=14;" vertex="1" parent="1">
          <mxGeometry x="608.9999999999998" y="592" width="201" height="28" as="geometry" />
        </mxCell>
        <mxCell id="ZytXiSbGGcMKnFnPFabf-25" value="Evolution" style="text;html=1;strokeColor=none;fillColor=none;align=center;verticalAlign=middle;whiteSpace=wrap;rounded=0;shadow=0;glass=0;comic=0;fontFamily=Courier New;fontSize=17;fontStyle=1" vertex="1" parent="1">
          <mxGeometry x="872" y="602.0000000000002" width="70" height="20" as="geometry" />
        </mxCell>
        <mxCell id="ZytXiSbGGcMKnFnPFabf-26" value="Firstness" style="text;html=1;strokeColor=none;fillColor=none;align=center;verticalAlign=middle;whiteSpace=wrap;rounded=0;shadow=0;glass=0;comic=0;fontFamily=Courier New;fontSize=15;fontStyle=1" vertex="1" parent="1">
          <mxGeometry x="-130" y="-149.99999999999977" width="110" height="20" as="geometry" />
        </mxCell>
        <mxCell id="ZytXiSbGGcMKnFnPFabf-27" value="Thirdness" style="text;html=1;strokeColor=none;fillColor=none;align=center;verticalAlign=middle;whiteSpace=wrap;rounded=0;shadow=0;glass=0;comic=0;fontFamily=Courier New;fontSize=15;fontStyle=1" vertex="1" parent="1">
          <mxGeometry x="798" y="-147.99999999999977" width="110" height="20" as="geometry" />
        </mxCell>
        <mxCell id="ZytXiSbGGcMKnFnPFabf-28" value="Value Chain" style="text;html=1;strokeColor=none;fillColor=none;align=center;verticalAlign=middle;whiteSpace=wrap;rounded=0;shadow=0;glass=0;comic=0;fontFamily=Courier New;fontSize=17;fontStyle=1;rotation=-90;" vertex="1" parent="1">
          <mxGeometry x="-230" y="150.00000000000023" width="130" height="20" as="geometry" />
        </mxCell>
        <mxCell id="ZytXiSbGGcMKnFnPFabf-29" value="Visible" style="text;html=1;strokeColor=none;fillColor=none;align=center;verticalAlign=middle;whiteSpace=wrap;rounded=0;shadow=0;glass=0;comic=0;fontFamily=Courier New;fontSize=15;fontStyle=1;rotation=-90;" vertex="1" parent="1">
          <mxGeometry x="-211" y="-99.99999999999977" width="90" height="20" as="geometry" />
        </mxCell>
        <mxCell id="ZytXiSbGGcMKnFnPFabf-30" value="Invisible" style="text;html=1;strokeColor=none;fillColor=none;align=center;verticalAlign=middle;whiteSpace=wrap;rounded=0;shadow=0;glass=0;comic=0;fontFamily=Courier New;fontSize=15;fontStyle=1;rotation=-90;" vertex="1" parent="1">
          <mxGeometry x="-210" y="470.0000000000002" width="90" height="20" as="geometry" />
        </mxCell>
        <UserObject label="" tooltip="Component" id="ZytXiSbGGcMKnFnPFabf-31">
          <mxCell style="ellipse;whiteSpace=wrap;html=1;aspect=fixed;strokeColor=#000000;fillColor=#ffffff;fontFamily=Helvetica;fontSize=13;align=center;strokeWidth=2;" vertex="1" parent="1">
            <mxGeometry x="600" y="-80" width="20" height="20" as="geometry" />
          </mxCell>
        </UserObject>
        <mxCell id="ZytXiSbGGcMKnFnPFabf-34" value="Control" style="text;html=1;align=center;verticalAlign=middle;resizable=0;points=[];autosize=1;" vertex="1" parent="1">
          <mxGeometry x="630" y="-80" width="50" height="20" as="geometry" />
        </mxCell>
        <UserObject label="" tooltip="Component" id="ZytXiSbGGcMKnFnPFabf-35">
          <mxCell style="ellipse;whiteSpace=wrap;html=1;aspect=fixed;strokeColor=#000000;fillColor=#ffffff;fontFamily=Helvetica;fontSize=13;align=center;strokeWidth=2;" vertex="1" parent="1">
            <mxGeometry x="435" y="-90" width="20" height="20" as="geometry" />
          </mxCell>
        </UserObject>
        <mxCell id="ZytXiSbGGcMKnFnPFabf-36" value="Individuality" style="text;html=1;align=center;verticalAlign=middle;resizable=0;points=[];autosize=1;" vertex="1" parent="1">
          <mxGeometry x="405" y="-70" width="80" height="20" as="geometry" />
        </mxCell>
        <mxCell id="ZytXiSbGGcMKnFnPFabf-39" value="Agency" style="text;html=1;align=center;verticalAlign=middle;resizable=0;points=[];autosize=1;" vertex="1" parent="1">
          <mxGeometry x="200" y="-20" width="60" height="20" as="geometry" />
        </mxCell>
        <UserObject label="" tooltip="Component" id="ZytXiSbGGcMKnFnPFabf-40">
          <mxCell style="ellipse;whiteSpace=wrap;html=1;aspect=fixed;strokeColor=#000000;fillColor=#ffffff;fontFamily=Helvetica;fontSize=13;align=center;strokeWidth=2;" vertex="1" parent="1">
            <mxGeometry x="420" y="50" width="20" height="20" as="geometry" />
          </mxCell>
        </UserObject>
        <mxCell id="ZytXiSbGGcMKnFnPFabf-41" value="Connectednesss" style="text;html=1;align=center;verticalAlign=middle;resizable=0;points=[];autosize=1;" vertex="1" parent="1">
          <mxGeometry x="425" y="80" width="100" height="20" as="geometry" />
        </mxCell>
        <mxCell id="ZytXiSbGGcMKnFnPFabf-44" value="" style="shape=mxgraph.bpmn.shape;html=1;verticalLabelPosition=bottom;labelBackgroundColor=#ffffff;verticalAlign=top;align=center;perimeter=ellipsePerimeter;outlineConnect=0;outline=end;symbol=terminate;rotation=0;fontStyle=1" vertex="1" parent="1">
          <mxGeometry x="690" y="110" width="20" height="20" as="geometry" />
        </mxCell>
        <mxCell id="ZytXiSbGGcMKnFnPFabf-45" value="Collective" style="text;html=1;align=center;verticalAlign=middle;resizable=0;points=[];autosize=1;" vertex="1" parent="1">
          <mxGeometry x="690" y="140" width="70" height="20" as="geometry" />
        </mxCell>
        <mxCell id="ZytXiSbGGcMKnFnPFabf-46" value="" style="shape=mxgraph.bpmn.shape;html=1;verticalLabelPosition=bottom;labelBackgroundColor=#ffffff;verticalAlign=top;align=center;perimeter=ellipsePerimeter;outlineConnect=0;outline=end;symbol=terminate;rotation=0;fontStyle=1" vertex="1" parent="1">
          <mxGeometry x="535" y="20" width="20" height="20" as="geometry" />
        </mxCell>
        <mxCell id="ZytXiSbGGcMKnFnPFabf-47" value="Power" style="text;html=1;align=center;verticalAlign=middle;resizable=0;points=[];autosize=1;" vertex="1" parent="1">
          <mxGeometry x="520" width="50" height="20" as="geometry" />
        </mxCell>
        <UserObject label="" tooltip="Component" id="ZytXiSbGGcMKnFnPFabf-48">
          <mxCell style="ellipse;whiteSpace=wrap;html=1;aspect=fixed;strokeColor=#000000;fillColor=#ffffff;fontFamily=Helvetica;fontSize=13;align=center;strokeWidth=2;" vertex="1" parent="1">
            <mxGeometry x="620" y="200" width="20" height="20" as="geometry" />
          </mxCell>
        </UserObject>
        <mxCell id="ZytXiSbGGcMKnFnPFabf-49" value="Calmness" style="text;html=1;align=center;verticalAlign=middle;resizable=0;points=[];autosize=1;" vertex="1" parent="1">
          <mxGeometry x="630" y="220" width="70" height="20" as="geometry" />
        </mxCell>
        <UserObject label="" tooltip="Component" id="ZytXiSbGGcMKnFnPFabf-50">
          <mxCell style="ellipse;whiteSpace=wrap;html=1;aspect=fixed;strokeColor=#000000;fillColor=#ffffff;fontFamily=Helvetica;fontSize=13;align=center;strokeWidth=2;" vertex="1" parent="1">
            <mxGeometry x="365" y="120" width="20" height="20" as="geometry" />
          </mxCell>
        </UserObject>
        <mxCell id="ZytXiSbGGcMKnFnPFabf-51" value="Competition" style="text;html=1;align=center;verticalAlign=middle;resizable=0;points=[];autosize=1;" vertex="1" parent="1">
          <mxGeometry x="270" y="120" width="80" height="20" as="geometry" />
        </mxCell>
        <mxCell id="ZytXiSbGGcMKnFnPFabf-53" value="Behavior" style="text;html=1;align=center;verticalAlign=middle;resizable=0;points=[];autosize=1;" vertex="1" parent="1">
          <mxGeometry x="415" y="180" width="60" height="20" as="geometry" />
        </mxCell>
        <mxCell id="ZytXiSbGGcMKnFnPFabf-55" value="Values" style="text;html=1;align=center;verticalAlign=middle;resizable=0;points=[];autosize=1;" vertex="1" parent="1">
          <mxGeometry x="315" y="230" width="50" height="20" as="geometry" />
        </mxCell>
        <mxCell id="ZytXiSbGGcMKnFnPFabf-56" value="" style="shape=mxgraph.bpmn.shape;html=1;verticalLabelPosition=bottom;labelBackgroundColor=#ffffff;verticalAlign=top;align=center;perimeter=ellipsePerimeter;outlineConnect=0;outline=end;symbol=terminate;rotation=0;fontStyle=1" vertex="1" parent="1">
          <mxGeometry x="460" y="210" width="20" height="20" as="geometry" />
        </mxCell>
        <mxCell id="ZytXiSbGGcMKnFnPFabf-57" value="" style="shape=mxgraph.bpmn.shape;html=1;verticalLabelPosition=bottom;labelBackgroundColor=#ffffff;verticalAlign=top;align=center;perimeter=ellipsePerimeter;outlineConnect=0;outline=end;symbol=terminate;rotation=0;fontStyle=1" vertex="1" parent="1">
          <mxGeometry x="335" y="260" width="20" height="20" as="geometry" />
        </mxCell>
        <mxCell id="ZytXiSbGGcMKnFnPFabf-58" value="" style="shape=mxgraph.bpmn.shape;html=1;verticalLabelPosition=bottom;labelBackgroundColor=#ffffff;verticalAlign=top;align=center;perimeter=ellipsePerimeter;outlineConnect=0;outline=end;symbol=terminate;rotation=0;fontStyle=1" vertex="1" parent="1">
          <mxGeometry x="120" y="320" width="20" height="20" as="geometry" />
        </mxCell>
        <mxCell id="ZytXiSbGGcMKnFnPFabf-59" value="Creativity" style="text;html=1;align=center;verticalAlign=middle;resizable=0;points=[];autosize=1;" vertex="1" parent="1">
          <mxGeometry x="80" y="290" width="70" height="20" as="geometry" />
        </mxCell>
        <mxCell id="ZytXiSbGGcMKnFnPFabf-60" value="" style="shape=mxgraph.bpmn.shape;html=1;verticalLabelPosition=bottom;labelBackgroundColor=#ffffff;verticalAlign=top;align=center;perimeter=ellipsePerimeter;outlineConnect=0;outline=end;symbol=terminate;rotation=0;fontStyle=1" vertex="1" parent="1">
          <mxGeometry x="345" y="350" width="20" height="20" as="geometry" />
        </mxCell>
        <mxCell id="ZytXiSbGGcMKnFnPFabf-61" value="Doctrine" style="text;html=1;align=center;verticalAlign=middle;resizable=0;points=[];autosize=1;" vertex="1" parent="1">
          <mxGeometry x="285" y="350" width="60" height="20" as="geometry" />
        </mxCell>
        <UserObject label="" tooltip="Component" id="ZytXiSbGGcMKnFnPFabf-62">
          <mxCell style="ellipse;whiteSpace=wrap;html=1;aspect=fixed;strokeColor=#000000;fillColor=#ffffff;fontFamily=Helvetica;fontSize=13;align=center;strokeWidth=2;" vertex="1" parent="1">
            <mxGeometry x="270" y="460" width="20" height="20" as="geometry" />
          </mxCell>
        </UserObject>
        <mxCell id="ZytXiSbGGcMKnFnPFabf-63" value="Intuition" style="text;html=1;align=center;verticalAlign=middle;resizable=0;points=[];autosize=1;" vertex="1" parent="1">
          <mxGeometry x="205" y="470" width="60" height="20" as="geometry" />
        </mxCell>
        <UserObject label="" tooltip="Component" id="ZytXiSbGGcMKnFnPFabf-64">
          <mxCell style="ellipse;whiteSpace=wrap;html=1;aspect=fixed;strokeColor=#000000;fillColor=#ffffff;fontFamily=Helvetica;fontSize=13;align=center;strokeWidth=2;" vertex="1" parent="1">
            <mxGeometry x="390" y="480" width="20" height="20" as="geometry" />
          </mxCell>
        </UserObject>
        <mxCell id="ZytXiSbGGcMKnFnPFabf-65" value="Landscape" style="text;html=1;align=center;verticalAlign=middle;resizable=0;points=[];autosize=1;" vertex="1" parent="1">
          <mxGeometry x="97" y="480" width="70" height="20" as="geometry" />
        </mxCell>
        <UserObject label="" tooltip="Component" id="ZytXiSbGGcMKnFnPFabf-66">
          <mxCell style="ellipse;whiteSpace=wrap;html=1;aspect=fixed;strokeColor=#000000;fillColor=#ffffff;fontFamily=Helvetica;fontSize=13;align=center;strokeWidth=2;" vertex="1" parent="1">
            <mxGeometry x="630" y="530" width="20" height="20" as="geometry" />
          </mxCell>
        </UserObject>
        <mxCell id="ZytXiSbGGcMKnFnPFabf-68" value="Symbol" style="text;html=1;align=center;verticalAlign=middle;resizable=0;points=[];autosize=1;" vertex="1" parent="1">
          <mxGeometry x="610" y="550" width="60" height="20" as="geometry" />
        </mxCell>
        <UserObject label="" tooltip="Component" id="ZytXiSbGGcMKnFnPFabf-69">
          <mxCell style="ellipse;whiteSpace=wrap;html=1;aspect=fixed;strokeColor=#000000;fillColor=#ffffff;fontFamily=Helvetica;fontSize=13;align=center;strokeWidth=2;" vertex="1" parent="1">
            <mxGeometry x="125" y="460" width="20" height="20" as="geometry" />
          </mxCell>
        </UserObject>
        <UserObject label="" tooltip="Component" id="ZytXiSbGGcMKnFnPFabf-76">
          <mxCell style="ellipse;whiteSpace=wrap;html=1;aspect=fixed;strokeColor=#000000;fillColor=#ffffff;fontFamily=Helvetica;fontSize=13;align=center;strokeWidth=2;" vertex="1" parent="1">
            <mxGeometry x="280" y="530" width="20" height="20" as="geometry" />
          </mxCell>
        </UserObject>
        <mxCell id="ZytXiSbGGcMKnFnPFabf-77" value="Icon" style="text;html=1;align=center;verticalAlign=middle;resizable=0;points=[];autosize=1;" vertex="1" parent="1">
          <mxGeometry x="270" y="560" width="40" height="20" as="geometry" />
        </mxCell>
        <mxCell id="ZytXiSbGGcMKnFnPFabf-82" value="" style="shape=mxgraph.bpmn.shape;html=1;verticalLabelPosition=bottom;labelBackgroundColor=#ffffff;verticalAlign=top;align=center;perimeter=ellipsePerimeter;outlineConnect=0;outline=end;symbol=terminate;rotation=0;fontStyle=1" vertex="1" parent="1">
          <mxGeometry x="490" y="440" width="20" height="20" as="geometry" />
        </mxCell>
        <mxCell id="ZytXiSbGGcMKnFnPFabf-85" value="Signs" style="text;html=1;align=center;verticalAlign=middle;resizable=0;points=[];autosize=1;" vertex="1" parent="1">
          <mxGeometry x="510" y="440" width="50" height="20" as="geometry" />
        </mxCell>
        <UserObject label="" tooltip="Interface / line of the present" id="ZytXiSbGGcMKnFnPFabf-86">
          <mxCell style="endArrow=none;html=1;strokeColor=#000000;strokeWidth=1;fontFamily=Courier New;fontSize=14;fontColor=#000000;entryX=1;entryY=0.5;entryDx=0;entryDy=0;exitX=0.145;exitY=0.145;exitDx=0;exitDy=0;exitPerimeter=0;" edge="1" parent="1" source="ZytXiSbGGcMKnFnPFabf-82" target="ZytXiSbGGcMKnFnPFabf-57">
            <mxGeometry width="50" height="50" relative="1" as="geometry">
              <mxPoint x="540" y="380" as="sourcePoint" />
              <mxPoint x="570" y="330" as="targetPoint" />
            </mxGeometry>
          </mxCell>
        </UserObject>
        <UserObject label="" tooltip="Interface / line of the present" id="ZytXiSbGGcMKnFnPFabf-87">
          <mxCell style="endArrow=none;html=1;strokeColor=#000000;strokeWidth=1;fontFamily=Courier New;fontSize=14;fontColor=#000000;entryX=0.5;entryY=1;entryDx=0;entryDy=0;" edge="1" parent="1" source="ZytXiSbGGcMKnFnPFabf-60" target="ZytXiSbGGcMKnFnPFabf-57">
            <mxGeometry width="50" height="50" relative="1" as="geometry">
              <mxPoint x="440" y="450" as="sourcePoint" />
              <mxPoint x="470" y="400" as="targetPoint" />
            </mxGeometry>
          </mxCell>
        </UserObject>
        <UserObject label="" tooltip="Interface / line of the present" id="ZytXiSbGGcMKnFnPFabf-89">
          <mxCell style="endArrow=none;html=1;strokeColor=#000000;strokeWidth=1;fontFamily=Courier New;fontSize=14;fontColor=#000000;entryX=1;entryY=0.5;entryDx=0;entryDy=0;exitX=0.145;exitY=0.145;exitDx=0;exitDy=0;exitPerimeter=0;" edge="1" parent="1" source="ZytXiSbGGcMKnFnPFabf-60" target="ZytXiSbGGcMKnFnPFabf-58">
            <mxGeometry width="50" height="50" relative="1" as="geometry">
              <mxPoint x="260" y="430" as="sourcePoint" />
              <mxPoint x="290" y="380" as="targetPoint" />
            </mxGeometry>
          </mxCell>
        </UserObject>
        <UserObject label="" tooltip="Interface / line of the present" id="ZytXiSbGGcMKnFnPFabf-90">
          <mxCell style="endArrow=none;html=1;strokeColor=#000000;strokeWidth=1;fontFamily=Courier New;fontSize=14;fontColor=#000000;exitX=0.855;exitY=0.145;exitDx=0;exitDy=0;exitPerimeter=0;entryX=0;entryY=0.5;entryDx=0;entryDy=0;" edge="1" parent="1" source="ZytXiSbGGcMKnFnPFabf-58" target="ZytXiSbGGcMKnFnPFabf-50">
            <mxGeometry width="50" height="50" relative="1" as="geometry">
              <mxPoint x="230" y="270" as="sourcePoint" />
              <mxPoint x="260" y="220" as="targetPoint" />
            </mxGeometry>
          </mxCell>
        </UserObject>
        <UserObject label="" tooltip="Interface / line of the present" id="ZytXiSbGGcMKnFnPFabf-91">
          <mxCell style="endArrow=none;html=1;strokeColor=#000000;strokeWidth=1;fontFamily=Courier New;fontSize=14;fontColor=#000000;entryX=1;entryY=1;entryDx=0;entryDy=0;exitX=0.5;exitY=0;exitDx=0;exitDy=0;" edge="1" parent="1" source="ZytXiSbGGcMKnFnPFabf-82" target="ZytXiSbGGcMKnFnPFabf-50">
            <mxGeometry width="50" height="50" relative="1" as="geometry">
              <mxPoint x="650" y="410" as="sourcePoint" />
              <mxPoint y="330" as="targetPoint" />
            </mxGeometry>
          </mxCell>
        </UserObject>
        <UserObject label="" tooltip="Interface / line of the present" id="ZytXiSbGGcMKnFnPFabf-92">
          <mxCell style="endArrow=none;html=1;strokeColor=#000000;strokeWidth=1;fontFamily=Courier New;fontSize=14;fontColor=#000000;entryX=0.5;entryY=1;entryDx=0;entryDy=0;exitX=0.855;exitY=0.145;exitDx=0;exitDy=0;exitPerimeter=0;" edge="1" parent="1" source="ZytXiSbGGcMKnFnPFabf-60" target="ZytXiSbGGcMKnFnPFabf-50">
            <mxGeometry width="50" height="50" relative="1" as="geometry">
              <mxPoint x="375" y="390" as="sourcePoint" />
              <mxPoint x="390" y="400" as="targetPoint" />
            </mxGeometry>
          </mxCell>
        </UserObject>
        <UserObject label="" tooltip="Interface / line of the present" id="ZytXiSbGGcMKnFnPFabf-94">
          <mxCell style="endArrow=none;html=1;strokeColor=#000000;strokeWidth=1;fontFamily=Courier New;fontSize=14;fontColor=#000000;entryX=0.855;entryY=0.855;entryDx=0;entryDy=0;entryPerimeter=0;exitX=0;exitY=0.5;exitDx=0;exitDy=0;" edge="1" parent="1" source="ZytXiSbGGcMKnFnPFabf-82" target="ZytXiSbGGcMKnFnPFabf-60">
            <mxGeometry width="50" height="50" relative="1" as="geometry">
              <mxPoint x="630" y="440" as="sourcePoint" />
              <mxPoint x="70" y="400" as="targetPoint" />
            </mxGeometry>
          </mxCell>
        </UserObject>
        <UserObject label="" tooltip="Interface / line of the present" id="ZytXiSbGGcMKnFnPFabf-95">
          <mxCell style="endArrow=none;html=1;strokeColor=#000000;strokeWidth=1;fontFamily=Courier New;fontSize=14;fontColor=#000000;entryX=0;entryY=1;entryDx=0;entryDy=0;exitX=1;exitY=0;exitDx=0;exitDy=0;" edge="1" parent="1" source="ZytXiSbGGcMKnFnPFabf-62" target="ZytXiSbGGcMKnFnPFabf-48">
            <mxGeometry width="50" height="50" relative="1" as="geometry">
              <mxPoint x="100" y="300" as="sourcePoint" />
              <mxPoint x="130" y="250" as="targetPoint" />
            </mxGeometry>
          </mxCell>
        </UserObject>
        <UserObject label="" tooltip="Interface / line of the present" id="ZytXiSbGGcMKnFnPFabf-96">
          <mxCell style="endArrow=none;html=1;strokeColor=#000000;strokeWidth=1;fontFamily=Courier New;fontSize=14;fontColor=#000000;exitX=1;exitY=0.5;exitDx=0;exitDy=0;entryX=0;entryY=0.5;entryDx=0;entryDy=0;" edge="1" parent="1" source="ZytXiSbGGcMKnFnPFabf-56" target="ZytXiSbGGcMKnFnPFabf-48">
            <mxGeometry width="50" height="50" relative="1" as="geometry">
              <mxPoint x="150" y="230" as="sourcePoint" />
              <mxPoint x="350" y="130" as="targetPoint" />
            </mxGeometry>
          </mxCell>
        </UserObject>
        <UserObject label="" tooltip="Interface / line of the present" id="ZytXiSbGGcMKnFnPFabf-97">
          <mxCell style="endArrow=none;html=1;strokeColor=#000000;strokeWidth=1;fontFamily=Courier New;fontSize=14;fontColor=#000000;exitX=0;exitY=0;exitDx=0;exitDy=0;entryX=1;entryY=0.5;entryDx=0;entryDy=0;" edge="1" parent="1" source="ZytXiSbGGcMKnFnPFabf-48" target="ZytXiSbGGcMKnFnPFabf-50">
            <mxGeometry width="50" height="50" relative="1" as="geometry">
              <mxPoint x="110" y="230" as="sourcePoint" />
              <mxPoint x="390" y="130" as="targetPoint" />
            </mxGeometry>
          </mxCell>
        </UserObject>
        <UserObject label="" tooltip="Interface / line of the present" id="ZytXiSbGGcMKnFnPFabf-105">
          <mxCell style="endArrow=none;html=1;strokeColor=#000000;strokeWidth=1;fontFamily=Courier New;fontSize=14;fontColor=#000000;entryX=1;entryY=0.5;entryDx=0;entryDy=0;exitX=0.145;exitY=0.145;exitDx=0;exitDy=0;exitPerimeter=0;" edge="1" parent="1" source="ZytXiSbGGcMKnFnPFabf-44" target="ZytXiSbGGcMKnFnPFabf-46">
            <mxGeometry width="50" height="50" relative="1" as="geometry">
              <mxPoint x="160" y="150" as="sourcePoint" />
              <mxPoint x="190" y="100" as="targetPoint" />
            </mxGeometry>
          </mxCell>
        </UserObject>
        <UserObject label="" tooltip="Interface / line of the present" id="ZytXiSbGGcMKnFnPFabf-106">
          <mxCell style="endArrow=none;html=1;strokeColor=#000000;strokeWidth=1;fontFamily=Courier New;fontSize=14;fontColor=#000000;exitX=0;exitY=0.5;exitDx=0;exitDy=0;" edge="1" parent="1" source="ZytXiSbGGcMKnFnPFabf-46">
            <mxGeometry width="50" height="50" relative="1" as="geometry">
              <mxPoint x="470" y="20" as="sourcePoint" />
              <mxPoint x="247" y="10" as="targetPoint" />
            </mxGeometry>
          </mxCell>
        </UserObject>
        <UserObject label="" tooltip="Interface / line of the present" id="ZytXiSbGGcMKnFnPFabf-107">
          <mxCell style="endArrow=none;html=1;strokeColor=#000000;strokeWidth=1;fontFamily=Courier New;fontSize=14;fontColor=#000000;entryX=0;entryY=1;entryDx=0;entryDy=0;exitX=1;exitY=0;exitDx=0;exitDy=0;" edge="1" parent="1" source="ZytXiSbGGcMKnFnPFabf-40" target="ZytXiSbGGcMKnFnPFabf-31">
            <mxGeometry width="50" height="50" relative="1" as="geometry">
              <mxPoint x="290" y="-20" as="sourcePoint" />
              <mxPoint x="320" y="-70" as="targetPoint" />
            </mxGeometry>
          </mxCell>
        </UserObject>
        <UserObject label="" tooltip="Interface / line of the present" id="ZytXiSbGGcMKnFnPFabf-108">
          <mxCell style="endArrow=none;html=1;strokeColor=#000000;strokeWidth=1;fontFamily=Courier New;fontSize=14;fontColor=#000000;entryX=1;entryY=1;entryDx=0;entryDy=0;exitX=0.5;exitY=0;exitDx=0;exitDy=0;" edge="1" parent="1" source="ZytXiSbGGcMKnFnPFabf-44" target="ZytXiSbGGcMKnFnPFabf-31">
            <mxGeometry width="50" height="50" relative="1" as="geometry">
              <mxPoint x="780" y="120" as="sourcePoint" />
              <mxPoint x="810" y="70" as="targetPoint" />
            </mxGeometry>
          </mxCell>
        </UserObject>
        <UserObject label="" tooltip="Interface / line of the present" id="ZytXiSbGGcMKnFnPFabf-111">
          <mxCell style="endArrow=none;html=1;strokeColor=#000000;strokeWidth=1;fontFamily=Courier New;fontSize=14;fontColor=#000000;entryX=1;entryY=1;entryDx=0;entryDy=0;exitX=0;exitY=0.5;exitDx=0;exitDy=0;" edge="1" parent="1" source="ZytXiSbGGcMKnFnPFabf-44" target="ZytXiSbGGcMKnFnPFabf-40">
            <mxGeometry width="50" height="50" relative="1" as="geometry">
              <mxPoint x="620" y="290" as="sourcePoint" />
              <mxPoint x="650" y="240" as="targetPoint" />
            </mxGeometry>
          </mxCell>
        </UserObject>
        <UserObject label="" tooltip="Interface / line of the present" id="ZytXiSbGGcMKnFnPFabf-112">
          <mxCell style="endArrow=none;html=1;strokeColor=#000000;strokeWidth=1;fontFamily=Courier New;fontSize=14;fontColor=#000000;entryX=1;entryY=0;entryDx=0;entryDy=0;exitX=0;exitY=0.5;exitDx=0;exitDy=0;" edge="1" parent="1" source="ZytXiSbGGcMKnFnPFabf-35" target="ZytXiSbGGcMKnFnPFabf-38">
            <mxGeometry width="50" height="50" relative="1" as="geometry">
              <mxPoint x="120" y="20" as="sourcePoint" />
              <mxPoint x="150" y="-30" as="targetPoint" />
            </mxGeometry>
          </mxCell>
        </UserObject>
        <mxCell id="ZytXiSbGGcMKnFnPFabf-115" value="&lt;b&gt;Me&lt;/b&gt;" style="text;html=1;align=center;verticalAlign=middle;resizable=0;points=[];autosize=1;" vertex="1" parent="1">
          <mxGeometry x="430" y="-148" width="30" height="20" as="geometry" />
        </mxCell>
        <mxCell id="ZytXiSbGGcMKnFnPFabf-116" value="&lt;b&gt;We&lt;/b&gt;" style="text;html=1;align=center;verticalAlign=middle;resizable=0;points=[];autosize=1;" vertex="1" parent="1">
          <mxGeometry x="680" y="-148" width="30" height="20" as="geometry" />
        </mxCell>
        <UserObject label="" tooltip="Interface / line of the present" id="ZytXiSbGGcMKnFnPFabf-117">
          <mxCell style="endArrow=none;html=1;strokeColor=#000000;strokeWidth=1;fontFamily=Courier New;fontSize=14;fontColor=#000000;exitX=0.5;exitY=0;exitDx=0;exitDy=0;" edge="1" parent="1" source="ZytXiSbGGcMKnFnPFabf-35" target="ZytXiSbGGcMKnFnPFabf-115">
            <mxGeometry width="50" height="50" relative="1" as="geometry">
              <mxPoint x="230" y="-50" as="sourcePoint" />
              <mxPoint x="260" y="-100" as="targetPoint" />
            </mxGeometry>
          </mxCell>
        </UserObject>
        <UserObject label="" tooltip="Interface / line of the present" id="ZytXiSbGGcMKnFnPFabf-118">
          <mxCell style="endArrow=none;html=1;strokeColor=#000000;strokeWidth=1;fontFamily=Courier New;fontSize=14;fontColor=#000000;exitX=0.5;exitY=0;exitDx=0;exitDy=0;" edge="1" parent="1" source="ZytXiSbGGcMKnFnPFabf-31" target="ZytXiSbGGcMKnFnPFabf-116">
            <mxGeometry width="50" height="50" relative="1" as="geometry">
              <mxPoint x="330" y="30" as="sourcePoint" />
              <mxPoint x="360" y="-20" as="targetPoint" />
            </mxGeometry>
          </mxCell>
        </UserObject>
        <UserObject label="" tooltip="Component" id="ZytXiSbGGcMKnFnPFabf-38">
          <mxCell style="ellipse;whiteSpace=wrap;html=1;aspect=fixed;strokeColor=#000000;fillColor=#ffffff;fontFamily=Helvetica;fontSize=13;align=center;strokeWidth=2;" vertex="1" parent="1">
            <mxGeometry x="230" width="20" height="20" as="geometry" />
          </mxCell>
        </UserObject>
        <UserObject label="" tooltip="Interface / line of the present" id="ZytXiSbGGcMKnFnPFabf-125">
          <mxCell style="endArrow=none;html=1;strokeColor=#000000;strokeWidth=1;fontFamily=Courier New;fontSize=14;fontColor=#000000;exitX=0;exitY=0;exitDx=0;exitDy=0;entryX=1;entryY=1;entryDx=0;entryDy=0;" edge="1" parent="1" source="ZytXiSbGGcMKnFnPFabf-50" target="ZytXiSbGGcMKnFnPFabf-38">
            <mxGeometry width="50" height="50" relative="1" as="geometry">
              <mxPoint x="492.9289321881347" y="102.9289321881347" as="sourcePoint" />
              <mxPoint x="250" y="-30" as="targetPoint" />
            </mxGeometry>
          </mxCell>
        </UserObject>
        <UserObject label="" tooltip="Interface / line of the present" id="ZytXiSbGGcMKnFnPFabf-127">
          <mxCell style="endArrow=none;html=1;strokeColor=#000000;strokeWidth=1;fontFamily=Courier New;fontSize=14;fontColor=#000000;entryX=0.145;entryY=0.855;entryDx=0;entryDy=0;entryPerimeter=0;exitX=1;exitY=0;exitDx=0;exitDy=0;" edge="1" parent="1" source="ZytXiSbGGcMKnFnPFabf-50" target="ZytXiSbGGcMKnFnPFabf-44">
            <mxGeometry width="50" height="50" relative="1" as="geometry">
              <mxPoint x="490" y="130" as="sourcePoint" />
              <mxPoint x="680" y="120" as="targetPoint" />
            </mxGeometry>
          </mxCell>
        </UserObject>
        <UserObject label="" tooltip="Interface / line of the present" id="ZytXiSbGGcMKnFnPFabf-128">
          <mxCell style="endArrow=none;html=1;strokeColor=#000000;strokeWidth=1;fontFamily=Courier New;fontSize=14;fontColor=#000000;entryX=0.145;entryY=0.855;entryDx=0;entryDy=0;entryPerimeter=0;exitX=1;exitY=0;exitDx=0;exitDy=0;" edge="1" parent="1" source="ZytXiSbGGcMKnFnPFabf-69" target="ZytXiSbGGcMKnFnPFabf-60">
            <mxGeometry width="50" height="50" relative="1" as="geometry">
              <mxPoint x="90" y="540" as="sourcePoint" />
              <mxPoint x="120" y="490" as="targetPoint" />
            </mxGeometry>
          </mxCell>
        </UserObject>
        <UserObject label="" tooltip="Interface / line of the present" id="ZytXiSbGGcMKnFnPFabf-129">
          <mxCell style="endArrow=none;html=1;strokeColor=#000000;strokeWidth=1;fontFamily=Courier New;fontSize=14;fontColor=#000000;entryX=0.5;entryY=1;entryDx=0;entryDy=0;" edge="1" parent="1" target="ZytXiSbGGcMKnFnPFabf-58">
            <mxGeometry width="50" height="50" relative="1" as="geometry">
              <mxPoint x="130" y="463" as="sourcePoint" />
              <mxPoint x="-20" y="370" as="targetPoint" />
            </mxGeometry>
          </mxCell>
        </UserObject>
        <UserObject label="" tooltip="Interface / line of the present" id="ZytXiSbGGcMKnFnPFabf-130">
          <mxCell style="endArrow=none;html=1;strokeColor=#000000;strokeWidth=1;fontFamily=Courier New;fontSize=14;fontColor=#000000;entryX=0;entryY=0.5;entryDx=0;entryDy=0;exitX=0.855;exitY=0.145;exitDx=0;exitDy=0;exitPerimeter=0;" edge="1" parent="1" source="ZytXiSbGGcMKnFnPFabf-58" target="ZytXiSbGGcMKnFnPFabf-57">
            <mxGeometry width="50" height="50" relative="1" as="geometry">
              <mxPoint x="210" y="430" as="sourcePoint" />
              <mxPoint x="240" y="380" as="targetPoint" />
            </mxGeometry>
          </mxCell>
        </UserObject>
        <UserObject label="" tooltip="Interface / line of the present" id="ZytXiSbGGcMKnFnPFabf-131">
          <mxCell style="endArrow=none;html=1;strokeColor=#000000;strokeWidth=1;fontFamily=Courier New;fontSize=14;fontColor=#000000;entryX=0;entryY=0.5;entryDx=0;entryDy=0;exitX=0.855;exitY=0.145;exitDx=0;exitDy=0;exitPerimeter=0;" edge="1" parent="1" source="ZytXiSbGGcMKnFnPFabf-57" target="ZytXiSbGGcMKnFnPFabf-56">
            <mxGeometry width="50" height="50" relative="1" as="geometry">
              <mxPoint x="360" y="260" as="sourcePoint" />
              <mxPoint y="310" as="targetPoint" />
            </mxGeometry>
          </mxCell>
        </UserObject>
        <UserObject label="" tooltip="Interface / line of the present" id="ZytXiSbGGcMKnFnPFabf-140">
          <mxCell style="endArrow=none;html=1;strokeColor=#000000;strokeWidth=1;fontFamily=Courier New;fontSize=14;fontColor=#000000;entryX=0.5;entryY=0;entryDx=0;entryDy=0;exitX=0.5;exitY=1;exitDx=0;exitDy=0;" edge="1" parent="1" source="ZytXiSbGGcMKnFnPFabf-60" target="ZytXiSbGGcMKnFnPFabf-62">
            <mxGeometry width="50" height="50" relative="1" as="geometry">
              <mxPoint x="10" y="460" as="sourcePoint" />
              <mxPoint x="40" y="410" as="targetPoint" />
            </mxGeometry>
          </mxCell>
        </UserObject>
        <UserObject label="" tooltip="Interface / line of the present" id="ZytXiSbGGcMKnFnPFabf-141">
          <mxCell style="endArrow=none;html=1;strokeColor=#000000;strokeWidth=1;fontFamily=Courier New;fontSize=14;fontColor=#000000;entryX=0.5;entryY=1;entryDx=0;entryDy=0;exitX=0;exitY=0;exitDx=0;exitDy=0;" edge="1" parent="1" source="ZytXiSbGGcMKnFnPFabf-76" target="ZytXiSbGGcMKnFnPFabf-62">
            <mxGeometry width="50" height="50" relative="1" as="geometry">
              <mxPoint x="184" y="510" as="sourcePoint" />
              <mxPoint x="120" y="450" as="targetPoint" />
            </mxGeometry>
          </mxCell>
        </UserObject>
        <UserObject label="" tooltip="Interface / line of the present" id="ZytXiSbGGcMKnFnPFabf-142">
          <mxCell style="endArrow=none;html=1;strokeColor=#000000;strokeWidth=1;fontFamily=Courier New;fontSize=14;fontColor=#000000;entryX=1;entryY=1;entryDx=0;entryDy=0;exitX=0;exitY=0.5;exitDx=0;exitDy=0;" edge="1" parent="1" source="ZytXiSbGGcMKnFnPFabf-64" target="ZytXiSbGGcMKnFnPFabf-62">
            <mxGeometry width="50" height="50" relative="1" as="geometry">
              <mxPoint x="130" y="540" as="sourcePoint" />
              <mxPoint x="160" y="490" as="targetPoint" />
              <Array as="points" />
            </mxGeometry>
          </mxCell>
        </UserObject>
        <mxCell id="ZytXiSbGGcMKnFnPFabf-75" value="Index" style="text;html=1;align=center;verticalAlign=middle;resizable=0;points=[];autosize=1;" vertex="1" parent="1">
          <mxGeometry x="385" y="500" width="40" height="20" as="geometry" />
        </mxCell>
        <mxCell id="ZytXiSbGGcMKnFnPFabf-143" value="" style="endArrow=none;dashed=1;html=1;strokeWidth=1;fontSize=26;strokeColor=#000000;" edge="1" parent="1">
          <mxGeometry width="50" height="50" relative="1" as="geometry">
            <mxPoint x="320" y="650" as="sourcePoint" />
            <mxPoint x="320" y="540" as="targetPoint" />
          </mxGeometry>
        </mxCell>
        <UserObject label="" tooltip="Interface / line of the present" id="ZytXiSbGGcMKnFnPFabf-145">
          <mxCell style="endArrow=none;html=1;strokeColor=#000000;strokeWidth=1;fontFamily=Courier New;fontSize=14;fontColor=#000000;entryX=1;entryY=0.5;entryDx=0;entryDy=0;exitX=0;exitY=0;exitDx=0;exitDy=0;" edge="1" parent="1" source="ZytXiSbGGcMKnFnPFabf-66" target="ZytXiSbGGcMKnFnPFabf-64">
            <mxGeometry width="50" height="50" relative="1" as="geometry">
              <mxPoint x="640" y="520" as="sourcePoint" />
              <mxPoint x="280" y="540" as="targetPoint" />
            </mxGeometry>
          </mxCell>
        </UserObject>
        <UserObject label="" tooltip="Interface / line of the present" id="ZytXiSbGGcMKnFnPFabf-146">
          <mxCell style="endArrow=none;html=1;strokeColor=#000000;strokeWidth=1;fontFamily=Courier New;fontSize=14;fontColor=#000000;entryX=1;entryY=0.5;entryDx=0;entryDy=0;exitX=0;exitY=0.5;exitDx=0;exitDy=0;" edge="1" parent="1" source="ZytXiSbGGcMKnFnPFabf-66" target="ZytXiSbGGcMKnFnPFabf-76">
            <mxGeometry width="50" height="50" relative="1" as="geometry">
              <mxPoint x="230" y="590" as="sourcePoint" />
              <mxPoint x="260" y="540" as="targetPoint" />
            </mxGeometry>
          </mxCell>
        </UserObject>
        <UserObject label="" tooltip="Interface / line of the present" id="ZytXiSbGGcMKnFnPFabf-147">
          <mxCell style="endArrow=none;html=1;strokeColor=#000000;strokeWidth=1;fontFamily=Courier New;fontSize=14;fontColor=#000000;entryX=0.5;entryY=1;entryDx=0;entryDy=0;exitX=1;exitY=0;exitDx=0;exitDy=0;" edge="1" parent="1" source="ZytXiSbGGcMKnFnPFabf-64" target="ZytXiSbGGcMKnFnPFabf-82">
            <mxGeometry width="50" height="50" relative="1" as="geometry">
              <mxPoint x="440" y="490" as="sourcePoint" />
              <mxPoint x="470" y="440" as="targetPoint" />
            </mxGeometry>
          </mxCell>
        </UserObject>
        <UserObject label="" tooltip="Interface / line of the present" id="ZytXiSbGGcMKnFnPFabf-149">
          <mxCell style="endArrow=none;html=1;strokeColor=#000000;strokeWidth=1;fontFamily=Courier New;fontSize=14;fontColor=#000000;entryX=0;entryY=1;entryDx=0;entryDy=0;exitX=0.5;exitY=0;exitDx=0;exitDy=0;" edge="1" parent="1" source="ZytXiSbGGcMKnFnPFabf-76" target="ZytXiSbGGcMKnFnPFabf-64">
            <mxGeometry width="50" height="50" relative="1" as="geometry">
              <mxPoint x="50" y="510" as="sourcePoint" />
              <mxPoint x="80" y="460" as="targetPoint" />
            </mxGeometry>
          </mxCell>
        </UserObject>
        <UserObject label="" tooltip="Interface / line of the present" id="ZytXiSbGGcMKnFnPFabf-156">
          <mxCell style="endArrow=none;html=1;strokeColor=#000000;strokeWidth=1;fontFamily=Courier New;fontSize=14;fontColor=#000000;exitX=0.855;exitY=0.145;exitDx=0;exitDy=0;exitPerimeter=0;" edge="1" parent="1" source="ZytXiSbGGcMKnFnPFabf-56">
            <mxGeometry width="50" height="50" relative="1" as="geometry">
              <mxPoint x="130" y="220" as="sourcePoint" />
              <mxPoint x="700" y="130" as="targetPoint" />
            </mxGeometry>
          </mxCell>
        </UserObject>
        <UserObject label="" tooltip="Interface / line of the present" id="ZytXiSbGGcMKnFnPFabf-157">
          <mxCell style="endArrow=none;html=1;strokeColor=#000000;strokeWidth=1;fontFamily=Courier New;fontSize=14;fontColor=#000000;entryX=0;entryY=1;entryDx=0;entryDy=0;exitX=0.5;exitY=0;exitDx=0;exitDy=0;" edge="1" parent="1" source="ZytXiSbGGcMKnFnPFabf-48" target="ZytXiSbGGcMKnFnPFabf-40">
            <mxGeometry width="50" height="50" relative="1" as="geometry">
              <mxPoint x="650" y="240" as="sourcePoint" />
              <mxPoint x="130" y="140" as="targetPoint" />
            </mxGeometry>
          </mxCell>
        </UserObject>
        <UserObject label="" tooltip="Interface / line of the present" id="ZytXiSbGGcMKnFnPFabf-158">
          <mxCell style="endArrow=none;html=1;strokeColor=#000000;strokeWidth=1;fontFamily=Courier New;fontSize=14;fontColor=#000000;entryX=0.145;entryY=0.855;entryDx=0;entryDy=0;entryPerimeter=0;exitX=1;exitY=0.5;exitDx=0;exitDy=0;" edge="1" parent="1" source="ZytXiSbGGcMKnFnPFabf-40" target="ZytXiSbGGcMKnFnPFabf-46">
            <mxGeometry width="50" height="50" relative="1" as="geometry">
              <mxPoint x="110" y="180" as="sourcePoint" />
              <mxPoint x="140" y="130" as="targetPoint" />
            </mxGeometry>
          </mxCell>
        </UserObject>
        <UserObject label="" tooltip="Interface / line of the present" id="ZytXiSbGGcMKnFnPFabf-159">
          <mxCell style="endArrow=none;html=1;strokeColor=#000000;strokeWidth=1;fontFamily=Courier New;fontSize=14;fontColor=#000000;entryX=0.145;entryY=0.855;entryDx=0;entryDy=0;entryPerimeter=0;exitX=0.5;exitY=0;exitDx=0;exitDy=0;" edge="1" parent="1" source="ZytXiSbGGcMKnFnPFabf-69" target="ZytXiSbGGcMKnFnPFabf-57">
            <mxGeometry width="50" height="50" relative="1" as="geometry">
              <mxPoint x="10" y="480" as="sourcePoint" />
              <mxPoint x="40" y="430" as="targetPoint" />
            </mxGeometry>
          </mxCell>
        </UserObject>
        <mxCell id="ZytXiSbGGcMKnFnPFabf-161" style="edgeStyle=orthogonalEdgeStyle;rounded=0;orthogonalLoop=1;jettySize=auto;html=1;exitX=0;exitY=1;exitDx=0;exitDy=0;entryX=0;entryY=0.5;entryDx=0;entryDy=0;" edge="1" parent="1" source="ZytXiSbGGcMKnFnPFabf-48" target="ZytXiSbGGcMKnFnPFabf-48">
          <mxGeometry relative="1" as="geometry" />
        </mxCell>
      </root>
    </mxGraphModel>
  </diagram>
</mxfile>
